<svg xmlns="http://www.w3.org/2000/svg" width="1024" height="1024"><path style="fill:#e5715d;stroke:none" d="M483 .424c-27.821 3.653-55.436 4.91-83 11.227C309.142 32.472 223.152 77.03 156.09 142.17-19.285 312.52-49.304 588.068 82.692 793 119.317 849.863 167.947 896.884 223 935.706c47.934 33.802 104.184 58.46 161 72.664 61.803 15.46 126.721 20.22 190 12.35 100.54-12.51 197.384-54.374 274-121.009C951.522 809.675 1017.94 676.484 1023.96 539c8.68-198.168-96.661-387.576-272.96-480.702-41.452-21.896-86.175-37.764-132-47.509C576.136 1.675 526.821-5.329 483 .424z"/><path style="fill:#ed9c98;stroke:none" d="M497 172v1h7l-7-1z"/><path style="fill:#f7ceca;stroke:none" d="M504 172.424c-31.809 4.177-60.996 11.15-88 29.605-72.87 49.798-95.517 148.819-53.691 225.971 9.106 16.798 21.538 32.047 35.691 44.83 11.144 10.066 24.864 16.8 34.815 28.17 13.204 15.087 14.763 38.469 5.811 56-15.869 31.073-47.974 29-77.626 29-55.845 0-128.067-10.968-152.935 54-18.678 48.796 12.988 105.662 63.935 116.335 32.282 6.763 70.067 1.665 103 1.665h318c20.788 0 43.69 2.671 64-2.375 54.532-13.549 82.868-77.439 54.572-126.625-30.813-53.56-94.184-43-146.572-43-30.453 0-61.801 1.857-77.73-30-9.486-18.972-5.922-42.742 8.77-57.996 9.87-10.248 23.234-16.881 33.96-26.29 14.601-12.808 27.425-28.622 36.691-45.714 51.523-95.039 2.313-214.074-100.691-246.341-19.115-5.988-41.982-9.863-62-7.235z"/><path style="fill:#ed9c98;stroke:none" d="M526 172v1h7l-7-1m-37 1v1h4l-4-1m48 0v1h4l-4-1m-54 1v1h4l-4-1m60 0v1h4l-4-1m-65 1v1h3l-3-1m71 0v1h3l-3-1m-74.333 1.333.666.334-.666-.334m80 0 .666.334-.666-.334M470 177l1 1-1-1m88.667.333.666.334-.666-.334M466 178l1 1-1-1m96.667.333.666.334-.666-.334m-100 1 .666.334-.666-.334m103 0 .666.334-.666-.334m-106 1 .666.334-.666-.334m109 0 .666.334-.666-.334m-112 1 .666.334-.666-.334M572 181l1 1-1-1m-118 1 1 1-1-1m120.667.333.666.334-.666-.334M451 183l1 1-1-1m126 0 1 1-1-1m-128.333 1.333.666.334-.666-.334M580 184l1 1-1-1m-134 1 1 1-1-1m136 0 1 1-1-1m-138 1 1 1-1-1m141 0 1 1-1-1m-143 1 1 1-1-1m145 0 1 1-1-1m-147 1 1 1-1-1m149 0 1 1-1-1m2 1 1 1-1-1m-156 1 1 1-1-1m158 0 1 1-1-1m-160 1 1 1-1-1m162 0 1 1-1-1m2 1 1 1-1-1m-167 1 1 1-1-1m169 0 1 1-1-1m-171 1 1 1-1-1m173 0 1 1-1-1m-175 1 1 1-1-1m176 0 1 1-1-1m-178 1 1 1-1-1m180 0 1 1-1-1m-181 1 1 1-1-1m183 0 1 1-1-1m-185 1 1 1-1-1m186 0 1 1-1-1m2 1 1 1-1-1m-191 1 1 1-1-1m192 0 1 1-1-1m2 1 1 1-1-1m-197 1 1 1-1-1m198 0 1 1-1-1m2 1 1 1-1-1m-203 1 1 1-1-1m204 0 1 1-1-1m-205 1 1 1-1-1m208 1 1 1-1-1m-211 1 1 1-1-1m212 0 1 1-1-1m-213 1 1 1-1-1m-1 1 1 1-1-1m217 0 1 1-1-1m1 1 1 1-1-1m-221 1 1 1-1-1m222 0 1 1-1-1m-223 1 1 1-1-1m226 1 1 1-1-1m1 1 1 1-1-1m1 1 1 1-1-1m-233 1 1 1-1-1m234 0 1 1-1-1m-235 1 1 1-1-1m236 0 1 1-1-1m-237 1 1 1-1-1m238 0 1 1-1-1m-239 1 1 1-1-1m240 0 1 1-1-1m-241 1 1 1-1-1m242 0 1 1-1-1m-243 1 1 1-1-1m-1 1 1 1-1-1m-1 1 1 1-1-1m-1 1 1 1-1-1m-1 1 1 1-1-1m252 0 1 1-1-1m-253 1 1 1-1-1m254 0 1 1-1-1m-255 1 1 1-1-1m256 0 1 1-1-1m-257 1 1 1-1-1m258 0 1 1-1-1m-259 1 1 1-1-1m260 0 1 1-1-1m1 1 1 1-1-1m1 1 1 1-1-1m-265 2 1 1-1-1m-1 1 1 1-1-1m268 0 1 1-1-1m-269 1 1 1-1-1m270 0 1 1-1-1m1 1 1 1-1-1m1 1 1 1-1-1m-275 2 1 1-1-1m276 0 1 1-1-1m-277 1 1 1-1-1m278 0 1 1-1-1m1 1 1 1-1-1m-281 2 1 1-1-1m-1 1 1 1-1-1m284 0 1 1-1-1m1 1 1 1-1-1m-286 1 1 1-1-1m-1 1 1 1-1-1m288 0 1 1-1-1m1 1 1 1-1-1m-291 2 1 1-1-1m292 0 1 1-1-1m1 1 1 1-1-1m-294 1 1 1-1-1m-1 1 1 1-1-1m296 0 1 1-1-1m-297 2 1 1-1-1m298 0 1 1-1-1m1 1 1 1-1-1m-164 1v1h3l-3-1z"/><path style="fill:#e5715d;stroke:none" d="M503 257.425c-34.639 4.716-64.791 27.069-74.572 61.575-15.831 55.854 30.651 117.881 90.572 110.714 15.404-1.842 30.355-6.668 43-15.873 57.908-42.154 41.171-134.755-28-153.689-9.963-2.727-20.702-4.129-31-2.727z"/><path style="fill:#ed9c98;stroke:none" d="M520 257v1h3l-3-1m-157 1 1 1-1-1m131.667.333.666.334-.666-.334m33 0 .666.334-.666-.334M665 258l1 1-1-1m-174.333 1.333.666.334-.666-.334m41 0 .666.334-.666-.334M362 260l1 1-1-1m124.667.333.666.334-.666-.334m49 0 .666.334-.666-.334M666 260l1 1-1-1m-182.333 1.333.666.334-.666-.334m55 0 .666.334-.666-.334m128.666.334.334.666-.334-.666M361 262l1 1-1-1m119 0 1 1-1-1m61.667.333.666.334-.666-.334M478 263l1 1-1-1m66 0 1 1-1-1m-184 1 1 1-1-1m116 0 1 1-1-1m70 0 1 1-1-1m122 0 1 1-1-1m-194.333 1.333.666.334-.666-.334m75 0 .666.334-.666-.334M669 265l1 1-1-1m-310 1 1 1-1-1m112 0 1 1-1-1m-1 1 1 1-1-1m82 0 1 1-1-1m118.333.667.334.666-.334-.666M358 268l1 1-1-1m110 0 1 1-1-1m86 0 1 1-1-1m-88 1 1 1-1-1m90 0 1 1-1-1m115.333.667.334.666-.334-.666M357 270l1 1-1-1m106 1 1 1-1-1m96 0 1 1-1-1m-203 1 1 1-1-1m316 0 1 1-1-1m-212 1 1 1-1-1m102 0 1 1-1-1m-207 1 1 1-1-1m208 0 1 1-1-1m110 0 1 1-1-1m-318.667 2.667.334.666-.334-.666M456 276l1 1-1-1m110 0 1 1-1-1m108 0 1 1-1-1m-219 1 1 1-1-1m112 0 1 1-1-1m-113 1 1 1-1-1m114 0 1 1-1-1m107.333.667.334.666-.334-.666M353 279l1 1-1-1m216 0 1 1-1-1m-217 2 1 1-1-1m324 0 1 1-1-1m1.333 2.667.334.666-.334-.666M351 284l1 1-1-1m-.667 2.667.334.666-.334-.666M446 286l1 1-1-1m55 0-1 2 1-2z"/><path style="fill:#f7ceca;stroke:none" d="M479 335c0-2.74 1.342-12.364-3.12-12.364-3.279 0-4.519 5.018-5.483 7.364-3.406 8.282-9.109 15.902-10.213 25-3.357 27.689 23.166 46.66 48.816 46.66 27.169 0 48.189-18.914 50.7-45.66.821-8.745-2.032-18.236-5.81-26-3.964-8.147-9.417-18.046-17.89-22l-4 18c-4.133-13.601-6.238-24.3-18.004-33.904-2.669-2.179-8.804-7.686-12.393-4.449-3.365 3.034-3.779 13.921-5.27 18.353-3.633 10.795-9.638 20.62-17.333 29z"/><path style="fill:#ed9c98;stroke:none" d="m505 286 1 1-1-1m71 0 1 1-1-1m102.333.667.334.666-.334-.666M445 287l1 1-1-1m132 0 1 1-1-1m-133 1 1 1-1-1m134 0 1 1-1-1m-228.667 1.667.334.666-.334-.666M510 289l1 1-1-1m169.333.667.334.666-.334-.666M442 291l1 1-1-1m138 0 1 1-1-1m-231.667 1.667.334.666-.334-.666M441 292l1 1-1-1m58 0v3h1l-1-3m15 0 1 1-1-1m67 0 1 1-1-1m99.333.667.334.666-.334-.666M515 293l1 1-1-1m1 1 1 1-1-1m-77 1 1 1-1-1m144 0 1 1-1-1m98.333.667.334.666-.334-.666M347 296l1 1-1-1m90 2 1 1-1-1m61.333.667.334.666-.334-.666M520 298l1 1-1-1m65 0 1 1-1-1m-238.667 1.667.334.666-.334-.666M521 299l1 1-1-1m161.333.667.334.666-.334-.666M436 300l1 1-1-1m150 0 1 1-1-1m-89 2 1 1-1-1m90 0 1 1-1-1m-241.667 1.667.334.666-.334-.666M434 303l1 1-1-1m90 0 1 1-1-1m64 0 1 1-1-1m95.333.667.334.666-.334-.666M433 305l1 1-1-1m63 0 1 1-1-1m29 0 1 1-1-1m64.333.667.334.666-.334-.666m-245 2 .334.666-.334-.666m88 0 .334.666-.334-.666M684 307v3h1l-1-3m-189 1 1 1-1-1m43 0 1 1-1-1m52 0 1 1-1-1m-63 1 1 1-1-1m12 0 1 1-1-1m-108 1 1 1-1-1m109 0 1 1-1-1m51 0 1 1-1-1m-97 1 1 1-1-1m34 0 1 1-1-1m13 0 1 1-1-1m-111 1 1 1-1-1m162.333.667.334.666-.334-.666M685 312v3h1l-1-3m-342 1v3h1l-1-3m150 0 1 1-1-1m36 1 1 1-1-1m-100 1 1 1-1-1m63 0 1 1-1-1m101.333.667.334.666-.334-.666M545 316l1 1-1-1m-54 1 1 1-1-1m39.333.667.334.666-.334-.666M428 318l1 1-1-1m106.333.667.334.666-.334-.666m60 0 .334.666-.334-.666M686 318v4h1l-1-4m-344 1v4h1l-1-4m148 0 1 1-1-1m-16 2v1h3l-3-1m-47 1 1 1-1-1m46 0 1 1-1-1m60 0 1 1-1-1m16 0 1 1-1-1m46.333.667.334.666-.334-.666M478 323l1 1-1-1m-6 1 1 1-1-1m15 0 1 1-1-1m44 0v2l2-2h-2m20 1 1 1-1-1m-124.667 1.667.334.666-.334-.666m45 0 .334.666-.334-.666m125 0 .334.666-.334-.666M341 327v6h1l-1-6m138 0v8h1l-1-8m6 0 1 1-1-1m67 0 1 1-1-1m135 0v6h1l-1-6m-203 1 1 1-1-1m-14 1 1 1-1-1m13 0 1 1-1-1m-58 2v4h1l-1-4m44.333.667.334.666-.334-.666M482 331l1 1-1-1m72 0 1 1-1-1m-73 1 1 1-1-1m116 0v3h1l-1-3m-42 1 1 1-1-1m-87 1 1 1-1-1m88 1 1 1-1-1m-89 1 1 1-1-1m-1 2 1 1-1-1m91 0 1 1-1-1m-91.667 1.667.334.666-.334-.666M464 341l1 1-1-1m94.333.667.334.666-.334-.666M463 343l1 1-1-1m-.667 2.667.334.666-.334-.666M559 347v4h1l-1-4m-97.667 1.667.334.666-.334-.666M425 349v6h1l-1-6m35.333 2.667.334.666-.334-.666M597 352v3h1l-1-3m90 3v5h1l-1-5m-346 1v6h1l-1-6m118 0v9h1l-1-9m-33 1v4h1l-1-4m133 0v4h1l-1-4m37.333 2.667.334.666-.334-.666m-169 4 .334.666-.334-.666m168 0 .334.666-.334-.666M558 365l1 1-1-1m128 0v4h1l-1-4m-344 1v4h1l-1-4m86 0v3h1l-1-3m166.333 1.667.334.666-.334-.666m-134 1 .334.666-.334-.666M557 369l1 1-1-1m-127.667 1.667.334.666-.334-.666m164 0 .334.666-.334-.666M556 371l1 1-1-1m-95 1 1 1-1-1m224 0v3h1l-1-3m-342 1v3h1l-1-3m87.333.667.334.666-.334-.666m162 0 .334.666-.334-.666M462 374l1 1-1-1m93 0 1 1-1-1m-124 2 1 1-1-1m32 0 1 1-1-1m91 0 1 1-1-1m37 0 1 1-1-1m93.333 1.667.334.666-.334-.666M432 378l1 1-1-1m32 0 1 1-1-1m126 0 1 1-1-1m-245.667 1.667.334.666-.334-.666M552 379l1 1-1-1m-118.667 1.667.334.666-.334-.666M465 380l1 1-1-1m124.333.667.334.666-.334-.666M466 381l1 1-1-1m-31.667 1.667.334.666-.334-.666M467 382l1 1-1-1m83 0 1 1-1-1m133.333.667.334.666-.334-.666m-338 1 .334.666-.334-.666M549 383l1 1-1-1m-114 1 1 1-1-1m113 0 1 1-1-1m39 0 1 1-1-1m-118 1 1 1-1-1m-33 1 1 1-1-1m150 0 1 1-1-1m96.333.667.334.666-.334-.666m-336 1 .334.666-.334-.666M437 388l1 1-1-1m36 0 1 1-1-1m71 0 1 1-1-1m41 0 1 1-1-1m-147 1 1 1-1-1m36 0 1 1-1-1m69 0 1 1-1-1m138 0v3h1l-1-3m-206 1 1 1-1-1m-127.667 1.667.334.666-.334-.666M439 391l1 1-1-1m101 0 1 1-1-1m43 0 1 1-1-1m-143 1 1 1-1-1m38 0 1 1-1-1m61 0 1 1-1-1m-59 1 1 1-1-1m57 0 1 1-1-1m143.333.667.334.666-.334-.666m-332 1 .334.666-.334-.666M441 394l1 1-1-1m40.667.333.666.334-.666-.334M581 394l1 1-1-1m-139 1 1 1-1-1m41 0 1 1-1-1m97 0 1 1-1-1m-95 1 1 1-1-1m194.333.667.334.666-.334-.666m-191.666.666.666.334-.666-.334M529 397l1 1-1-1m-180 1 1 1-1-1m95 0 1 1-1-1m46 0 1 1-1-1m37 0 1 1-1-1m51 0 1 1-1-1m-133 1 1 1-1-1m48 0 1 1-1-1m31 0 1 1-1-1m53 0 1 1-1-1m101 0 1 1-1-1m-232 1 1 1-1-1m50.667.333.666.334-.666-.334M520 400l1 1-1-1m56 0 1 1-1-1m-226 1 1 1-1-1m97 0 1 1-1-1m54 0v1h6l-6-1m10 0v1h4l-4-1m64 0 1 1-1-1m-127 1 1 1-1-1m229 0 1 1-1-1m-325.667 1.667.334.666-.334-.666M449 403l1 1-1-1m1 1 1 1-1-1m226.333.667.334.666-.334-.666M451 405l1 1-1-1m-99 1 1 1-1-1m100 0 1 1-1-1m1 1 1 1-1-1m116 0 1 1-1-1m106 0 1 1-1-1m-221 1 1 1-1-1m114 0 1 1-1-1m-215 1 1 1-1-1m102 0 1 1-1-1m112 0 1 1-1-1m107.333.667.334.666-.334-.666M456 410l1 1-1-1m110 0 1 1-1-1m-212 1 1 1-1-1m104 0 1 1-1-1m1 1 1 1-1-1m104 0 1 1-1-1m110 0 1 1-1-1m-317.667 1.667.334.666-.334-.666M460 413l1 1-1-1m102 0 1 1-1-1m-100 1 1 1-1-1m210 0 1 1-1-1m-209 1 1 1-1-1m96 0 1 1-1-1m-203 1 1 1-1-1m109 0 1 1-1-1m206 0 1 1-1-1m-205 1 1 1-1-1m90 0 1 1-1-1m-199 1 1 1-1-1m111 0 1 1-1-1m86 0 1 1-1-1m116 0 1 1-1-1m-200 1 1 1-1-1m82 0 1 1-1-1m-194 1 1 1-1-1m113.667.333.666.334-.666-.334M551 420l1 1-1-1m118 0 1 1-1-1m-195 1 1 1-1-1m75 0 1 1-1-1m-190 1 1 1-1-1m117 0 1 1-1-1m70 0 1 1-1-1m122 0 1 1-1-1m-190 1 1 1-1-1m66 0 1 1-1-1m-184 1 1 1-1-1m120.667.333.666.334-.666-.334M542 424l1 1-1-1m125 0 1 1-1-1m-184 1 1 1-1-1m55.667.333.666.334-.666-.334M361 426l1 1-1-1m125 0 1 1-1-1m50 0 1 1-1-1m130 0 1 1-1-1m-175.333 1.333.666.334-.666-.334m41 0 .666.334-.666-.334M362 428l1 1-1-1m132.667.333.666.334-.666-.334m33 0 .666.334-.666-.334M665 428l1 1-1-1m-165 1v1h3l-3-1m20 0v1h3l-3-1m144 0 1 1-1-1m-300 2 1 1-1-1m299 0 1 1-1-1m-298 2 1 1-1-1m297 0 1 1-1-1m-1 1 1 1-1-1m-294 2 1 1-1-1m293 0 1 1-1-1m-1 1 1 1-1-1m-290 2 1 1-1-1m289 0 1 1-1-1m-1 1 1 1-1-1m-287 1 1 1-1-1m1 1 1 1-1-1m285 0 1 1-1-1m-1 1 1 1-1-1m-1 1 1 1-1-1m-281 1 1 1-1-1m1 1 1 1-1-1m279 0 1 1-1-1m-1 1 1 1-1-1m-1 1 1 1-1-1m-275 1 1 1-1-1m1 1 1 1-1-1m273 0 1 1-1-1m-1 1 1 1-1-1m-1 1 1 1-1-1m-1 1 1 1-1-1m-267 1 1 1-1-1m266 0 1 1-1-1m-265 1 1 1-1-1m263 2 1 1-1-1m-1 1 1 1-1-1m-1 1 1 1-1-1m-257 1 1 1-1-1m256 0 1 1-1-1m-255 1 1 1-1-1m254 0 1 1-1-1m-253 1 1 1-1-1m252 0 1 1-1-1m-251 1 1 1-1-1m250 0 1 1-1-1m-249 1 1 1-1-1m248 0 1 1-1-1m-247 1 1 1-1-1m246 0 1 1-1-1m-245 1 1 1-1-1m244 0 1 1-1-1m-243 1 1 1-1-1m242 0 1 1-1-1m-241 1 1 1-1-1m240 0 1 1-1-1m-239 1 1 1-1-1m238 0 1 1-1-1m-237 1 1 1-1-1m236 0 1 1-1-1m-235 1 1 1-1-1m1 1 1 1-1-1m230 1 1 1-1-1m-1 1 1 1-1-1m-225 1 1 1-1-1m224 0 1 1-1-1m-223 1 1 1-1-1m222 0 1 1-1-1m-221 1 1 1-1-1m218 1 1 1-1-1m-1 1 1 1-1-1m-213 1 1 1-1-1m1 1 1 1-1-1m209 0 1 1-1-1m-1 1 1 1-1-1m-205 1 1 1-1-1m1 1 1 1-1-1m201 0 1 1-1-1m-199 1 1 1-1-1m1 1 1 1-1-1m195 0 1 1-1-1m-193 1 1 1-1-1m1 1 1 1-1-1m189 0 1 1-1-1m-187 1 1 1-1-1m184 1 1 1-1-1m-181 1 1 1-1-1m1 1 1 1-1-1m177 0 1 1-1-1m-8 8 1 1-1-1m-160 1 1 1-1-1m159 0 1 1-1-1m-158 1 1 1-1-1m1 2 1 1-1-1m155 0 1 1-1-1m-154 1 1 1-1-1m1 2 1 1-1-1m151 0 1 1-1-1m-150 2 1 1-1-1m149 0 1 1-1-1m-148 2 1 1-1-1m147 0 1 1-1-1m-146 2 1 1-1-1m145 1 1 1-1-1m-143.667 1.667.334.666-.334-.666m143 1 .334.666-.334-.666M442 519l1 1-1-1m141.333 1.667.334.666-.334-.666M443 523v3h1l-1-3m139 2v4h1l-1-4m-138 8 1 1-1-1m138 4v4h1l-1-4m-139 3v4h1l-1-4z"/><path style="fill:#ed9c98;stroke:none" d="m583.333 544.667.334.666-.334-.666m-141 2 .334.666-.334-.666m142 2 .334.666-.334-.666m-143 1 .334.666-.334-.666m144 2 .334.666-.334-.666M440 552l1 1-1-1m146 2 1 1-1-1m-147 1 1 1-1-1m148 1 1 1-1-1m-149 1 1 1-1-1m150 1 1 1-1-1m-151 1 1 1-1-1m-1 1 1 1-1-1m153 0 1 1-1-1m-154 2 1 1-1-1m-1 1 1 1-1-1m157 0 1 1-1-1m1 1 1 1-1-1m-160 2 1 1-1-1m-1 1 1 1-1-1m163 0 1 1-1-1m-164 1 1 1-1-1m165 0 1 1-1-1m1 1 1 1-1-1m1 1 1 1-1-1m-170 1 1 1-1-1m171 0 1 1-1-1m-172 1 1 1-1-1m173 0 1 1-1-1m-174 1 1 1-1-1m175 0 1 1-1-1m-176 1 1 1-1-1m179 1 1 1-1-1m-182 1 1 1-1-1m183 0 1 1-1-1m2 1 1 1-1-1m-188 1 1 1-1-1m189 0 1 1-1-1m-191 1 1 1-1-1m193 0 1 1-1-1m-195 1 1 1-1-1m197 0 1 1-1-1m-199 1 1 1-1-1m201 0 1 1-1-1m-203 1 1 1-1-1m205.667.333.666.334-.666-.334m-209 1 .666.334-.666-.334m212 0 .666.334-.666-.334m-216 1 .666.334-.666-.334m220 0 .666.334-.666-.334M283 585v1h116l-35-1h-81m344 0v1h114l-35-1h-79m-353 1v1h5l-5-1m471 0v1h4l-4-1m-476 1v1h3l-3-1m485.667.333.666.334-.666-.334m-489 1 .666.334-.666-.334m493 0 .666.334-.666-.334m-497 1 .666.334-.666-.334M762 589l1 1-1-1m-503 1 1 1-1-1m506 0 1 1-1-1m-508.333 1.333.666.334-.666-.334m511 0 .666.334-.666-.334M254 592l1 1-1-1m516 0 1 1-1-1m-519 1 1 1-1-1m521 0 1 1-1-1m-523 1 1 1-1-1m525 0 1 1-1-1m-527 1 1 1-1-1m529 0 1 1-1-1m2 1 1 1-1-1m-534 1 1 1-1-1m536 0 1 1-1-1m-538 1 1 1-1-1m541 1 1 1-1-1m-544 1 1 1-1-1m546 0 1 1-1-1m1 1 1 1-1-1m-550 1 1 1-1-1m-1 1 1 1-1-1m554 0 1 1-1-1m1 1 1 1-1-1m-558 1 1 1-1-1m-1 1 1 1-1-1m-1 1 1 1-1-1m564 0 1 1-1-1m-565 1 1 1-1-1m566 0 1 1-1-1m-567 1 1 1-1-1m568 0 1 1-1-1m-569 1 1 1-1-1m570 0 1 1-1-1m-571 1 1 1-1-1m572 0 1 1-1-1m-573 1 1 1-1-1m574 0 1 1-1-1m-575 1 1 1-1-1m576 0 1 1-1-1m-577 1 1 1-1-1m-1 1 1 1-1-1m581 2 1 1-1-1m1 1 1 1-1-1m-585 1 1 1-1-1m586 0 1 1-1-1m-587 1 1 1-1-1m588 1 1 1-1-1m-589 1 1 1-1-1m590 0 1 1-1-1m-591 1 1 1-1-1m-1 2 1 1-1-1m248 0 1 1-1-1z"/><path style="fill:#e5715d;stroke:none" d="m464.667 625.333.666.334-.666-.334z"/><path style="fill:#ed9c98;stroke:none" d="m466.667 625.333.666.334-.666-.334M809 625l1 1-1-1m-595 1 1 1-1-1z"/><path style="fill:#d82a6d;stroke:none" d="m463 626 2 6-16 1 8 16c-2.361 0-19.844-.87-16.824 4.544C442.514 657.736 453.065 656 457 656c14.099 0 28.996 1.367 43-.286 5.191-.612 11.221.326 14-4.714l-29-3 10.654-13.985-6.654-3.01L463 626z"/><path style="fill:#e5715d;stroke:none" d="m468 626 1 1-1-1z"/><path style="fill:#ed9c98;stroke:none" d="m469 626 1 1-1-1m-7 1 1 1-1-1z"/><path style="fill:#e5715d;stroke:none" d="m470 627 1 1-1-1z"/><path style="fill:#ed9c98;stroke:none" d="m810 627 1 1-1-1m-597 1 1 1-1-1m598 0 1 1-1-1m-348 1 1 1-1-1m10 0 1 1-1-1m217 0v1h3l-3-1z"/><path style="fill:#e5715d;stroke:none" d="M693 629v1h8l-8-1z"/><path style="fill:#ed9c98;stroke:none" d="m701 629 3 3-3-3m-489 1 1 1-1-1z"/><path style="fill:#e5715d;stroke:none" d="M478 630v1h12l-12-1z"/><path style="fill:#ed9c98;stroke:none" d="M490 630v1h4l-4-1m191 0v1h3l-3-1z"/><path style="fill:#e5715d;stroke:none" d="M684 630v1h3l-3-1z"/><path style="fill:#d82a6d;stroke:none" d="m672 649-25 2c2.947 9.329 18.596 3.369 25.772 6.603 4.421 1.993 3.948 10.348 5.228 14.397l-1 1c-8.304-2.454-19.378-.519-28 .089-1.708.121-10.026.848-7.824 4.367 1.461 2.336 7.402 2.289 9.824 2.455 9.586.657 19.391.089 29 .089.163 7.878 4.712 24.033-4.109 28.972-6.953 3.894-12.665-3.489-17.89-6.703-1.398-.86-5.576-2.993-6.08.064-.476 2.889 3.219 5.627 5.084 7.228 6.042 5.188 15.13 10.37 22.952 5.43 11.213-7.082 7.044-23.215 7.043-33.991 6.736 0 13.334-.011 20.024-.874 1.968-.254 6.863-1.303 4.125-4.287-5.135-5.598-18.432.291-24.846-3.867-4.005-2.596-4.12-10.713-4.303-14.972 2.66 0 5.344.093 8-.089 1.898-.131 15.861-1.4 10.377-5.888-8.212-6.721-21.726 3.987-23.377-12.023 3.682-.291 7.344-.88 11-1.421 1.648-.244 19.858-3.364 12.663-6.98-9.334-4.689-30.624 1.638-40.663 2.977-3.4.453-12.282-.408-13.079 4.409-.648 3.918 6.958 3.024 9.079 3.014 8.463-.037 13.632-1.843 16 8.001z"/><path style="fill:#ed9c98;stroke:none" d="m812 630 1 1-1-1m-449 1v1h3l-3-1z"/><path style="fill:#e5715d;stroke:none" d="m366 631 1 1-1-1z"/><path style="fill:#ed9c98;stroke:none" d="m367 631 1 1-1-1z"/><path style="fill:#e5715d;stroke:none" d="m368 631 1 1-1-1z"/><path style="fill:#ed9c98;stroke:none" d="m369.667 631.333.666.334-.666-.334M453 631v1h9l-9-1z"/><path style="fill:#e5715d;stroke:none" d="M462 631v1h3l-3-1z"/><path style="fill:#ed9c98;stroke:none" d="m495 631 1 1-1-1m177 0v1h3l-3-1z"/><path style="fill:#e5715d;stroke:none" d="M675 631v1h3l-3-1z"/><path style="fill:#ed9c98;stroke:none" d="m211 632 1 1-1-1m147.667.333.666.334-.666-.334z"/><path style="fill:#e5715d;stroke:none" d="m360 632 1 1-1-1z"/><path style="fill:#d82a6d;stroke:none" d="M336 639c2.718 13.241 1 26.443 1 40 0 4.873-1.361 12.268.742 16.772 3.881 8.308 27.051-2.918 27.051-9.624 0-5.763-17.092 6.385-20.19 4.036C341.907 688.138 343 681.923 343 679c0-3.955-1.127-10.219 1.179-13.682 3.946-5.927 19.57-3.191 25.821-7.318v-1c-7.304-5.249-17.525-1.175-26-1 0-3.322-.677-7.776 1.179-10.721 4.965-7.88 20.856-1.562 26.069-8.774 3.284-4.542-6.127-4.542-8.248-4.334-9.004.881-18.552 3.68-27 6.829z"/><path style="fill:#e5715d;stroke:none" d="m371 632 1 1-1-1m79 0 1 1-1-1z"/><path style="fill:#ed9c98;stroke:none" d="m496 632 1 1-1-1z"/><path style="fill:#e5715d;stroke:none" d="m597 632-1 2 1-2z"/><path style="fill:#d82a6d;stroke:none" d="m598 632-8.728 22.682L575 661c2.951 1.422 9.147 1.479 10.882 4.434 1.8 3.065-.779 9.364-1.536 12.566-2.416 10.21-11.867 25.906-9.346 36 14.881-7.784 9.332-35.582 18.14-47.682 4.652-6.392 16.513-1.855 16.98 5.396C611.135 687.5 602.158 697.865 598 712c9.074 2.975 14.757-15.111 16.791-22 2.471-8.368 5.675-25.543-2.835-31.262-4.403-2.958-10.878-2.792-15.956-3.738 1.375-6.645 7.421-17.534 2-23z"/><path style="fill:#e5715d;stroke:none" d="m599 632 1 1-1-1z"/><path style="fill:#ed9c98;stroke:none" d="M664 632v1h3l-3-1z"/><path style="fill:#e5715d;stroke:none" d="m667.667 632.333.666.334-.666-.334M703 632l1 1-1-1z"/><path style="fill:#ed9c98;stroke:none" d="m813 632 1 1-1-1m-459.333 1.333.666.334-.666-.334z"/><path style="fill:#e5715d;stroke:none" d="m355 633 1 1-1-1m17 0 1 1-1-1m228 0 1 1-1-1z"/><path style="fill:#ed9c98;stroke:none" d="M654 633v1h3l-3-1z"/><path style="fill:#e5715d;stroke:none" d="M657 633v1h4l-4-1z"/><path style="fill:#ed9c98;stroke:none" d="m703 633 1 1-1-1m-493 1 1 1-1-1m139.667.333.666.334-.666-.334z"/><path style="fill:#e5715d;stroke:none" d="m351 634 1 1-1-1z"/><path style="fill:#ed9c98;stroke:none" d="m373.333 634.667.334.666-.334-.666z"/><path style="fill:#e5715d;stroke:none" d="m449 634 1 1-1-1m47 0 1 1-1-1z"/><path style="fill:#ed9c98;stroke:none" d="m595 634 1 1-1-1m6.333.667.334.666-.334-.666M649 634l1 1-1-1z"/><path style="fill:#e5715d;stroke:none" d="m650 634 1 1-1-1z"/><path style="fill:#ed9c98;stroke:none" d="m702 634 1 1-1-1m112 0 1 1-1-1m-469 1 1 1-1-1z"/><path style="fill:#e5715d;stroke:none" d="m346.667 635.333.666.334-.666-.334z"/><path style="fill:#ed9c98;stroke:none" d="m389.667 635.333.666.334-.666-.334z"/><path style="fill:#e5715d;stroke:none" d="M391 635v1h3l-3-1z"/><path style="fill:#d82a6d;stroke:none" d="m380 637-1 52 2 26c5.624-4.963 4-13.096 4-20v-52l21.682 1.179L408.996 656 404 690c10.667-5.542 11.724-27.318 11.985-38 .113-4.603.824-10.109-3.133-13.348-8.851-7.246-22.756-2.086-32.852-1.652z"/><path style="fill:#e5715d;stroke:none" d="m405.667 635.333.666.334-.666-.334z"/><path style="fill:#ed9c98;stroke:none" d="m407 635 1 1-1-1m42 0 1 1-1-1m47 0 1 1-1-1z"/><path style="fill:#e5715d;stroke:none" d="m647 635 1 1-1-1m53 0 1 1-1-1z"/><path style="fill:#ed9c98;stroke:none" d="m209 636 1 1-1-1m133 0 1 1-1-1z"/><path style="fill:#e5715d;stroke:none" d="m343 636 1 1-1-1z"/><path style="fill:#ed9c98;stroke:none" d="m372 636 1 1-1-1m9 0v1h3l-3-1z"/><path style="fill:#e5715d;stroke:none" d="m384.667 636.333.666.334-.666-.334M409 636l1 1-1-1z"/><path style="fill:#ed9c98;stroke:none" d="m450 636 1 1-1-1m144 0 1 1-1-1z"/><path style="fill:#e5715d;stroke:none" d="m646 636 1 1-1-1m49.667.333.666.334-.666-.334z"/><path style="fill:#ed9c98;stroke:none" d="m697.667 636.333.666.334-.666-.334M815 636l1 1-1-1m-476 1 1 1-1-1m32 0 1 1-1-1z"/><path style="fill:#e5715d;stroke:none" d="m411 637 1 1-1-1z"/><path style="fill:#ed9c98;stroke:none" d="m452 637 1 1-1-1z"/><path style="fill:#e5715d;stroke:none" d="m492 637 1 1-1-1z"/><path style="fill:#ed9c98;stroke:none" d="m493 637 1 1-1-1z"/><path style="fill:#e5715d;stroke:none" d="m594.333 637.667.334.666-.334-.666m6 0 .334.666-.334-.666z"/><path style="fill:#ed9c98;stroke:none" d="m645 637 1 1-1-1z"/><path style="fill:#e5715d;stroke:none" d="m688.667 637.333.666.334-.666-.334z"/><path style="fill:#ed9c98;stroke:none" d="m690.667 637.333.666.334-.666-.334M208 638l1 1-1-1m128 0 1 1-1-1z"/><path style="fill:#e5715d;stroke:none" d="m337 638 1 1-1-1m31 0 1 1-1-1z"/><path style="fill:#ed9c98;stroke:none" d="m369 638 1 1-1-1z"/><path style="fill:#e5715d;stroke:none" d="M379 638v5h1l-1-5z"/><path style="fill:#ed9c98;stroke:none" d="m413 638 1 1-1-1z"/><path style="fill:#e5715d;stroke:none" d="m454 638 1 1-1-1m16.667.333.666.334-.666-.334z"/><path style="fill:#ed9c98;stroke:none" d="M472 638v1h4l-4-1z"/><path style="fill:#f7ceca;stroke:none" d="M463 640c.244 20.587 31.863-3.085 8-1-2.684.234-5.33.663-8 1z"/><path style="fill:#ed9c98;stroke:none" d="m480 638 1 1-1-1z"/><path style="fill:#e5715d;stroke:none" d="M481 638v4h1l-1-4z"/><path style="fill:#ed9c98;stroke:none" d="m490 638 1 1-1-1z"/><path style="fill:#e5715d;stroke:none" d="m645 638 1 1-1-1m36.667.333.666.334-.666-.334z"/><path style="fill:#ed9c98;stroke:none" d="m683.667 638.333.666.334-.666-.334M335 639l1 1-1-1z"/><path style="fill:#e5715d;stroke:none" d="m363 639 1 1-1-1z"/><path style="fill:#ed9c98;stroke:none" d="m364.667 639.333.666.334-.666-.334M414 639l1 1-1-1m49 0v1h4l-4-1m84 0v1h3l-3-1z"/><path style="fill:#e5715d;stroke:none" d="m550.667 639.333.666.334-.666-.334z"/><path style="fill:#d82a6d;stroke:none" d="M564 697c0-9.035.961-18.021 1.83-27 .705-7.281 3.326-18.182-.287-24.956-3.462-6.491-19.047-8.46-23.368-1.765-7.55 11.697-2.181 33.731-2.175 46.721.002 3.42-3.182 18.566-2.623 18.976 5.557 4.079 26.491-1.937 31.431-5.819 5.154-4.05-1.325-6.043-4.808-6.157z"/><path style="fill:#e5715d;stroke:none" d="M555 639v1h3l-3-1z"/><path style="fill:#ed9c98;stroke:none" d="m558.667 639.333.666.334-.666-.334M593 639l1 1-1-1m7 0 1 1-1-1m45 0 1 1-1-1m32 0v3h1l-1-3m139 0 1 1-1-1z"/><path style="fill:#e5715d;stroke:none" d="m335 640 1 1-1-1m23 0 1 1-1-1z"/><path style="fill:#ed9c98;stroke:none" d="m359.667 640.333.666.334-.666-.334M415 640l1 1-1-1z"/><path style="fill:#e5715d;stroke:none" d="m455 640 1 1-1-1m7 0v6h1l-1-6z"/><path style="fill:#ed9c98;stroke:none" d="m488 640 1 1-1-1m55 0 1 1-1-1z"/><path style="fill:#e5715d;stroke:none" d="m544.667 640.333.666.334-.666-.334M561 640l1 1-1-1z"/><path style="fill:#ed9c98;stroke:none" d="m562 640 1 1-1-1z"/><path style="fill:#e5715d;stroke:none" d="m593.333 640.667.334.666-.334-.666z"/><path style="fill:#ed9c98;stroke:none" d="m646 640 1 1-1-1z"/><path style="fill:#e5715d;stroke:none" d="M663 640v1h6l-6-1z"/><path style="fill:#ed9c98;stroke:none" d="m207 641 1 1-1-1z"/><path style="fill:#e5715d;stroke:none" d="m353 641 1 1-1-1z"/><path style="fill:#ed9c98;stroke:none" d="m354.667 641.333.666.334-.666-.334M455 641l1 1-1-1z"/><path style="fill:#e5715d;stroke:none" d="m487 641 1 1-1-1m55 0 1 1-1-1z"/><path style="fill:#ed9c98;stroke:none" d="m563 641 1 1-1-1z"/><path style="fill:#e5715d;stroke:none" d="m599 641 1 1-1-1z"/><path style="fill:#ed9c98;stroke:none" d="m669 641 1 1-1-1m148 0 1 1-1-1m-481 1 1 1-1-1z"/><path style="fill:#e5715d;stroke:none" d="m348.667 642.333.666.334-.666-.334z"/><path style="fill:#ed9c98;stroke:none" d="m350 642 1 1-1-1z"/><path style="fill:#e5715d;stroke:none" d="m392 642 1 1-1-1z"/><path style="fill:#ed9c98;stroke:none" d="m416 642 1 1-1-1m71 0 1 1-1-1m54 0 1 1-1-1m23 0 1 1-1-1m35 0 1 1-1-1z"/><path style="fill:#e5715d;stroke:none" d="m677.333 642.667.334.666-.334-.666z"/><path style="fill:#ed9c98;stroke:none" d="M337 643v10h1l-1-10z"/><path style="fill:#e5715d;stroke:none" d="m345 643 1 1-1-1z"/><path style="fill:#ed9c98;stroke:none" d="m346 643 1 1-1-1z"/><path style="fill:#e5715d;stroke:none" d="m385 643 1 1-1-1z"/><path style="fill:#ed9c98;stroke:none" d="M386 643v1h4l-4-1m18.667.333.666.334-.666-.334z"/><path style="fill:#e5715d;stroke:none" d="m406 643 1 1-1-1m10 0v6h1l-1-6z"/><path style="fill:#ed9c98;stroke:none" d="m480 643 1 1-1-1z"/><path style="fill:#e5715d;stroke:none" d="m541 643 1 1-1-1z"/><path style="fill:#ed9c98;stroke:none" d="m592.333 643.667.334.666-.334-.666z"/><path style="fill:#e5715d;stroke:none" d="m670 643 1 1-1-1z"/><path style="fill:#ed9c98;stroke:none" d="m206 644 1 1-1-1m179 0 1 1-1-1z"/><path style="fill:#e5715d;stroke:none" d="M408 644v4h1l-1-4m48.333.667.334.666-.334-.666m24 0 .334.666-.334-.666M486 644l1 1-1-1m79 0 1 1-1-1z"/><path style="fill:#ed9c98;stroke:none" d="m670 644 1 1-1-1m8 0 1 1-1-1m140 0 1 1-1-1z"/><path style="fill:#e5715d;stroke:none" d="m344 645 1 1-1-1z"/><path style="fill:#ed9c98;stroke:none" d="m486 645 1 1-1-1m80 0 1 1-1-1z"/><path style="fill:#e5715d;stroke:none" d="m592 645 1 1-1-1m6 0 1 1-1-1m80 0 1 1-1-1z"/><path style="fill:#ed9c98;stroke:none" d="M344 646v10h4v-1h-3l-1-9m112 0 1 1-1-1m84.333.667.334.666-.334-.666z"/><path style="fill:#e5715d;stroke:none" d="m551 646 1 1-1-1m2.667.333.666.334-.666-.334M566 646l1 1-1-1z"/><path style="fill:#ed9c98;stroke:none" d="m598 646 1 1-1-1z"/><path style="fill:#e5715d;stroke:none" d="m671 646 1 1-1-1z"/><path style="fill:#ed9c98;stroke:none" d="m205 647 1 1-1-1m258 0 1 1-1-1m16 0-6 1v1l7-1-1-1z"/><path style="fill:#e5715d;stroke:none" d="m485 647 1 1-1-1z"/><path style="fill:#ed9c98;stroke:none" d="M546 650h1l2-2-3 2z"/><path style="fill:#f7ceca;stroke:none" d="M545 662c3.473 0 8.502.879 11.682-.742 9.13-4.655-4.052-22.414-9.979-11.03-.745 1.431-1.004 3.198-1.263 4.771-.384 2.331-.421 4.646-.44 7.001z"/><path style="fill:#e5715d;stroke:none" d="m557 647 1 1-1-1z"/><path style="fill:#ed9c98;stroke:none" d="m567 647 1 1-1-1m24.333.667.334.666-.334-.666M671 647l-5 1v1l6-1-1-1z"/><path style="fill:#e5715d;stroke:none" d="m679 647 1 1-1-1z"/><path style="fill:#ed9c98;stroke:none" d="m819.333 647.667.334.666-.334-.666M408 648l1 1-1-1m42 0v1h6l-6-1z"/><path style="fill:#e5715d;stroke:none" d="m456 648 1 1-1-1m10 0v1h3l-3-1z"/><path style="fill:#ed9c98;stroke:none" d="m469 648 1 1-1-1z"/><path style="fill:#e5715d;stroke:none" d="M470 648v1h3l-3-1m9 0 1 1-1-1m7 0 1 1-1-1m2 0v1h22l-22-1z"/><path style="fill:#ed9c98;stroke:none" d="m510 648 1 1-1-1z"/><path style="fill:#e5715d;stroke:none" d="m540.333 648.667.334.666-.334-.666M558 648l1 1-1-1m9 0v6h1l-1-6m30 0 1 1-1-1m74 0 1 1-1-1m9 0 1 1-1-1z"/><path style="fill:#ed9c98;stroke:none" d="M681 648v1h3l-3-1z"/><path style="fill:#e5715d;stroke:none" d="m408 649 1 1-1-1z"/><path style="fill:#ed9c98;stroke:none" d="M416 649v5h1l-1-5m24.667.333.666.334-.666-.334z"/><path style="fill:#e5715d;stroke:none" d="m442.667 649.333.666.334-.666-.334M511 649l1 1-1-1m80 0 1 1-1-1z"/><path style="fill:#ed9c98;stroke:none" d="m597 649 1 1-1-1m54 0v1h4l-4-1z"/><path style="fill:#e5715d;stroke:none" d="M655 649v1h5l-5-1m35 0v1h5l-5-1z"/><path style="fill:#ed9c98;stroke:none" d="M695 649v1h5l-5-1m-491 1v3h1l-1-3m204 0v4h1l-1-4m31 0 1 1-1-1m208 0 1 1-1-1z"/><path style="fill:#e5715d;stroke:none" d="m648 650 1 1-1-1z"/><path style="fill:#ed9c98;stroke:none" d="m701 650 1 1-1-1m-263 1 1 1-1-1z"/><path style="fill:#e5715d;stroke:none" d="m559 651 1 1-1-1z"/><path style="fill:#ed9c98;stroke:none" d="m646 651 1 1-1-1m56 0 1 1-1-1m118.333.667.334.666-.334-.666z"/><path style="fill:#e5715d;stroke:none" d="m384 652 1 1-1-1m54 0 1 1-1-1z"/><path style="fill:#ed9c98;stroke:none" d="M539 652v3h1l-1-3z"/><path style="fill:#e5715d;stroke:none" d="m545 652 1 1-1-1z"/><path style="fill:#ed9c98;stroke:none" d="m559 652-2 9v1c3.515-2.279 3.551-6.302 2-10m31 0 1 1-1-1z"/><path style="fill:#e5715d;stroke:none" d="m596 652 1 1-1-1m50 0 1 1-1-1m56.333.667.334.666-.334-.666M337 653v5h1l-1-5z"/><path style="fill:#ed9c98;stroke:none" d="m438 653 1 1-1-1z"/><path style="fill:#e5715d;stroke:none" d="m513 653 1 1-1-1z"/><path style="fill:#ed9c98;stroke:none" d="m545.333 653.667.334.666-.334-.666z"/><path style="fill:#e5715d;stroke:none" d="m590 653 1 1-1-1z"/><path style="fill:#ed9c98;stroke:none" d="m596.333 653.667.334.666-.334-.666M646 653l1 1-1-1m-292 1v1h4l-4-1z"/><path style="fill:#e5715d;stroke:none" d="M358 654v1h3l-3-1m9 0 1 1-1-1m41 0v9h1l-1-9z"/><path style="fill:#ed9c98;stroke:none" d="m439 654 1 1-1-1m73 0 1 1-1-1m55 0v4h1l-1-4z"/><path style="fill:#e5715d;stroke:none" d="m647 654 1 1-1-1z"/><path style="fill:#ed9c98;stroke:none" d="M203 655v3h1l-1-3z"/><path style="fill:#e5715d;stroke:none" d="M348 655v1h3l-3-1m20 0 1 1-1-1z"/><path style="fill:#ed9c98;stroke:none" d="m441 655 1 1-1-1z"/><path style="fill:#e5715d;stroke:none" d="m442 655 1 1-1-1m59 0v1h7l-7-1z"/><path style="fill:#ed9c98;stroke:none" d="M508 655v1h3l-3-1z"/><path style="fill:#e5715d;stroke:none" d="M539 655v4h1l-1-4m59.667.333.666.334-.666-.334z"/><path style="fill:#ed9c98;stroke:none" d="M600 655v1h3l-3-1m48 0 1 1-1-1z"/><path style="fill:#e5715d;stroke:none" d="m649 655 1 1-1-1z"/><path style="fill:#ed9c98;stroke:none" d="m701 655 1 1-1-1m120 0v3h1l-1-3z"/><path style="fill:#e5715d;stroke:none" d="m369 656 1 1-1-1m15 0 1 1-1-1z"/><path style="fill:#ed9c98;stroke:none" d="M447 656v1h39c-10.274-4.311-27.828-1-39-1m131 0v1h4l-4-1z"/><path style="fill:#e5715d;stroke:none" d="M582 656v1h7l-7-1m23.667.333.666.334-.666-.334z"/><path style="fill:#ed9c98;stroke:none" d="m607 656 1 1-1-1m46 0v1h4l-4-1z"/><path style="fill:#e5715d;stroke:none" d="M657 656v1h6l-6-1m36 0v1h5l-5-1z"/><path style="fill:#ed9c98;stroke:none" d="m698.667 656.333.666.334-.666-.334z"/><path style="fill:#e5715d;stroke:none" d="M415 657v3h1l-1-3z"/><path style="fill:#ed9c98;stroke:none" d="m576 657 1 1-1-1m34 0 1 1-1-1m61 0v1h3l-3-1z"/><path style="fill:#e5715d;stroke:none" d="m674 657 1 1-1-1m8 0 1 1-1-1z"/><path style="fill:#ed9c98;stroke:none" d="M683 657v1h5l-5-1z"/><path style="fill:#e5715d;stroke:none" d="m369 658 1 1-1-1m15 0v13h1l-1-13m160 0v3h1l-1-3z"/><path style="fill:#ed9c98;stroke:none" d="m575 658 1 1-1-1m37 0 1 1-1-1z"/><path style="fill:#e5715d;stroke:none" d="m368 659 1 1-1-1z"/><path style="fill:#ed9c98;stroke:none" d="m613 659 1 1-1-1z"/><path style="fill:#e5715d;stroke:none" d="m675.333 659.667.334.666-.334-.666z"/><path style="fill:#ed9c98;stroke:none" d="M682 659v3h1l-1-3z"/><path style="fill:#e5715d;stroke:none" d="m366 660 1 1-1-1z"/><path style="fill:#ed9c98;stroke:none" d="m367 660 1 1-1-1m48 0v3h1l-1-3m46.667.333.666.334-.666-.334z"/><path style="fill:#e5715d;stroke:none" d="M463 660v1h5l-5-1z"/><path style="fill:#ed9c98;stroke:none" d="m468 660 1 1-1-1z"/><path style="fill:#e5715d;stroke:none" d="m469 660 1 1-1-1z"/><path style="fill:#ed9c98;stroke:none" d="M470 660v1h3l-3-1m144 0 1 1-1-1z"/><path style="fill:#e5715d;stroke:none" d="M359 661v1h3l-3-1z"/><path style="fill:#ed9c98;stroke:none" d="M362 661v1h3l-3-1m94 0 1 1-1-1z"/><path style="fill:#e5715d;stroke:none" d="m457.667 661.333.666.334-.666-.334z"/><path style="fill:#d82a6d;stroke:none" d="M469 694c-.388 11.921-16.327 7.365-25 10 3.69 6.692 18.109 5 25 5v12h5c0-3.169-.821-7.912 1.028-10.682 4.259-6.382 23.875-.902 30.972-4.318-4.442-8.055-23.909-5-32-5 1.447-9.076 6.845-5.888 12.996-9.742 5.164-3.236 9.365-10.34 10.613-16.258 3.262-15.468-21.838-14.046-31.609-13.999-3.618.017-9.418-.311-12.397 2.163-3.997 3.322-2.213 25.51 1.255 28.978C457.967 695.251 465.004 694 469 694z"/><path style="fill:#e5715d;stroke:none" d="M477 661v1h3l-3-1z"/><path style="fill:#ed9c98;stroke:none" d="M480 661v1h3l-3-1m64 0 1 1-1-1z"/><path style="fill:#e5715d;stroke:none" d="m559 661 1 1-1-1m7 0v3h1l-1-3z"/><path style="fill:#ed9c98;stroke:none" d="m575 661 1 1-1-1m40 0 1 1-1-1m60.333.667.334.666-.334-.666M822 661v6h1l-1-6m-620 1v13h1l-1-13z"/><path style="fill:#e5715d;stroke:none" d="m351.667 662.333.666.334-.666-.334z"/><path style="fill:#ed9c98;stroke:none" d="M353 662v1h3l-3-1m99 0 1 1-1-1z"/><path style="fill:#e5715d;stroke:none" d="m453 662 1 1-1-1m33.667.333.666.334-.666-.334z"/><path style="fill:#ed9c98;stroke:none" d="m488.667 662.333.666.334-.666-.334z"/><path style="fill:#e5715d;stroke:none" d="m577 662 1 1-1-1m105 0 1 1-1-1m-337.333 1.333.666.334-.666-.334z"/><path style="fill:#ed9c98;stroke:none" d="m346.667 663.333.666.334-.666-.334M451 663l1 1-1-1z"/><path style="fill:#e5715d;stroke:none" d="m491 663 1 1-1-1z"/><path style="fill:#ed9c98;stroke:none" d="m492 663 1 1-1-1m87.667.333.666.334-.666-.334z"/><path style="fill:#e5715d;stroke:none" d="M581 663v1h4l-4-1m35 0 1 1-1-1z"/><path style="fill:#ed9c98;stroke:none" d="M378 664v21h1l-1-21z"/><path style="fill:#e5715d;stroke:none" d="M451 664v9h1l-1-9m43 0 1 1-1-1z"/><path style="fill:#ed9c98;stroke:none" d="M566 664v4h1l-1-4m20 0 1 1-1-1m7 0 1 1-1-1m12.667.333.666.334-.666-.334z"/><path style="fill:#e5715d;stroke:none" d="m607 664 1 1-1-1z"/><path style="fill:#ed9c98;stroke:none" d="M617 664v11h1l-1-11m-281 1v8h1l-1-8z"/><path style="fill:#e5715d;stroke:none" d="M343 665v3h1l-1-3z"/><path style="fill:#ed9c98;stroke:none" d="m608 665 1 1-1-1z"/><path style="fill:#e5715d;stroke:none" d="m676 665 1 1-1-1z"/><path style="fill:#ed9c98;stroke:none" d="m683.333 665.667.334.666-.334-.666M407 666v3h1l-1-3z"/><path style="fill:#e5715d;stroke:none" d="m414.333 666.667.334.666-.334-.666z"/><path style="fill:#ed9c98;stroke:none" d="m586 666 1 1-1-1z"/><path style="fill:#e5715d;stroke:none" d="m592 666 1 1-1-1m17 0 1 1-1-1z"/><path style="fill:#ed9c98;stroke:none" d="m676.333 666.667.334.666-.334-.666z"/><path style="fill:#e5715d;stroke:none" d="m497 667 1 1-1-1m89.333.667.334.666-.334-.666z"/><path style="fill:#ed9c98;stroke:none" d="m592 667 1 1-1-1m17 0v3h1l-1-3z"/><path style="fill:#e5715d;stroke:none" d="m683 667 1 1-1-1z"/><path style="fill:#ed9c98;stroke:none" d="M343 668v14h1l-1-14m71 0 1 1-1-1z"/><path style="fill:#e5715d;stroke:none" d="m456 668 1 1-1-1z"/><path style="fill:#ed9c98;stroke:none" d="m457 668-1 3h1v-3z"/><path style="fill:#f7ceca;stroke:none" d="M457 674c3.043-.131 26.509-3.614 23.793 3.741-1.998 5.411-19.011 3.371-23.793 4.259 1.544 7.077 8.399 4.712 14 4.17 8.695-.842 19.977.022 19.471-12.111-.182-4.375-5.109-4.369-8.471-4.773-7.111-.856-24.232-5.146-25 4.714z"/><path style="fill:#ed9c98;stroke:none" d="M470 668v1h5l-5-1z"/><path style="fill:#e5715d;stroke:none" d="M475 668v1h4l-4-1m82 0v1l2 3h1v-4h-3m-149.667 1.667.334.666-.334-.666z"/><path style="fill:#ed9c98;stroke:none" d="M483 669v1h3l-3-1z"/><path style="fill:#e5715d;stroke:none" d="m486.667 669.333.666.334-.666-.334z"/><path style="fill:#ed9c98;stroke:none" d="m498.333 669.667.334.666-.334-.666z"/><path style="fill:#e5715d;stroke:none" d="M548 669v1h3l-3-1z"/><path style="fill:#ed9c98;stroke:none" d="M551 669v1h3l-3-1z"/><path style="fill:#f7ceca;stroke:none" d="m558 679 1-10c-3.48.149-10.603-.192-13.397 2.028-2.314 1.839-2.378 8.076.715 9.199 3.209 1.164 8.372-.806 11.682-1.227z"/><path style="fill:#e5715d;stroke:none" d="m490 670 1 1-1-1m54 0 1 1-1-1m47 0 1 1-1-1z"/><path style="fill:#ed9c98;stroke:none" d="m684 670 1 1-1-1z"/><path style="fill:#e5715d;stroke:none" d="M456 671v3h1l-1-3z"/><path style="fill:#ed9c98;stroke:none" d="m490 671 1 1-1-1z"/><path style="fill:#e5715d;stroke:none" d="M498 671v4h1l-1-4z"/><path style="fill:#ed9c98;stroke:none" d="m585 671 1 1-1-1m6 0 1 1-1-1z"/><path style="fill:#e5715d;stroke:none" d="m677 671 1 1-1-1m7 0 1 1-1-1m-299.667 1.667.334.666-.334-.666M413 672l1 1-1-1m130 0v5h1l-1-5m22 0v3h1l-1-3m20 0 1 1-1-1m25 0 1 1-1-1z"/><path style="fill:#ed9c98;stroke:none" d="M651 672v1h5l-5-1z"/><path style="fill:#e5715d;stroke:none" d="M656 672v1h8l-8-1m20 0 1 1-1-1z"/><path style="fill:#ed9c98;stroke:none" d="M685 672v1h3l-3-1z"/><path style="fill:#e5715d;stroke:none" d="M336 673v20h1l-1-20z"/><path style="fill:#ed9c98;stroke:none" d="m406.333 673.667.334.666-.334-.666M413 673l1 1-1-1m38 0v4h1l-1-4m11 0v1h17l-17-1m180 0 1 1-1-1z"/><path style="fill:#e5715d;stroke:none" d="M643 673v1h3l-3-1m51 0v1h4l-4-1z"/><path style="fill:#ed9c98;stroke:none" d="M698 673v1h7l-7-1z"/><path style="fill:#e5715d;stroke:none" d="m480 674 1 1-1-1m110 0 1 1-1-1z"/><path style="fill:#ed9c98;stroke:none" d="M609 674v5h1l-1-5z"/><path style="fill:#e5715d;stroke:none" d="m640 674 1 1-1-1m69 0 1 1-1-1z"/><path style="fill:#ed9c98;stroke:none" d="m710 674 1 1-1-1z"/><path style="fill:#e5715d;stroke:none" d="m384 675 1 1-1-1m28 0 1 1-1-1z"/><path style="fill:#ed9c98;stroke:none" d="m490.333 675.667.334.666-.334-.666M558 675v3h1l-1-3m7 0v4h1l-1-4m19 0 1 1-1-1m6 0 1 1-1-1z"/><path style="fill:#e5715d;stroke:none" d="m639.333 675.667.334.666-.334-.666z"/><path style="fill:#ed9c98;stroke:none" d="m412 676 1 1-1-1z"/><path style="fill:#e5715d;stroke:none" d="m497 676 1 1-1-1m87.333.667.334.666-.334-.666M712 676l1 1-1-1z"/><path style="fill:#ed9c98;stroke:none" d="m405 677 1 1-1-1z"/><path style="fill:#e5715d;stroke:none" d="m482 677 1 1-1-1m8 0 1 1-1-1z"/><path style="fill:#ed9c98;stroke:none" d="m497 677 1 1-1-1m216 0 1 1-1-1m109 0v6h1l-1-6z"/><path style="fill:#e5715d;stroke:none" d="m405 678 1 1-1-1m76 0 1 1-1-1m15 0 1 1-1-1m62 0 1 1-1-1m31 0 1 1-1-1m123 0 1 1-1-1m-301 1 1 1-1-1m67.667.333.666.334-.666-.334z"/><path style="fill:#ed9c98;stroke:none" d="m480 679 1 1-1-1m9 0 1 1-1-1m7 0 1 1-1-1z"/><path style="fill:#e5715d;stroke:none" d="M539 679v9h1l-1-9z"/><path style="fill:#ed9c98;stroke:none" d="m554.667 679.333.666.334-.666-.334z"/><path style="fill:#e5715d;stroke:none" d="m556.667 679.333.666.334-.666-.334z"/><path style="fill:#ed9c98;stroke:none" d="m583.333 679.667.334.666-.334-.666M589 679l1 1-1-1z"/><path style="fill:#e5715d;stroke:none" d="M609 679v4h1l-1-4m7 0v3h1l-1-3z"/><path style="fill:#ed9c98;stroke:none" d="m642.667 679.333.666.334-.666-.334z"/><path style="fill:#e5715d;stroke:none" d="M644 679v1h4l-4-1z"/><path style="fill:#ed9c98;stroke:none" d="m404 680 1 1-1-1z"/><path style="fill:#e5715d;stroke:none" d="M452 680v3h1l-1-3m16 0v1h5l-5-1z"/><path style="fill:#ed9c98;stroke:none" d="M473 680v1h4l-4-1z"/><path style="fill:#e5715d;stroke:none" d="m489 680 1 1-1-1m6 0 1 1-1-1z"/><path style="fill:#ed9c98;stroke:none" d="m544 680 1 1-1-1m4.667.333.666.334-.666-.334z"/><path style="fill:#e5715d;stroke:none" d="m550.667 680.333.666.334-.666-.334z"/><path style="fill:#ed9c98;stroke:none" d="M658 680v1h17l-17-1z"/><path style="fill:#e5715d;stroke:none" d="m675.667 680.333.666.334-.666-.334z"/><path style="fill:#ed9c98;stroke:none" d="m677 680 1 1-1-1z"/><path style="fill:#e5715d;stroke:none" d="m678.667 680.333.666.334-.666-.334M702 680l1 1-1-1m2 0v1h6l-6-1z"/><path style="fill:#ed9c98;stroke:none" d="m710 680 1 1-1-1m-507 1v4h1l-1-4z"/><path style="fill:#e5715d;stroke:none" d="m404 681 1 1-1-1m52.333.667.334.666-.334-.666z"/><path style="fill:#ed9c98;stroke:none" d="M457 681v1h3l-3-1z"/><path style="fill:#e5715d;stroke:none" d="m545 681 1 1-1-1m38 0 1 1-1-1z"/><path style="fill:#ed9c98;stroke:none" d="m679.333 681.667.334.666-.334-.666M687 681v6h1l-1-6m-277 1 1 1-1-1z"/><path style="fill:#e5715d;stroke:none" d="m488 682 1 1-1-1m6 0 1 1-1-1m94 0 1 1-1-1z"/><path style="fill:#ed9c98;stroke:none" d="M616 682v3h1l-1-3m-255 1 1 1-1-1z"/><path style="fill:#e5715d;stroke:none" d="m362 683 1 1-1-1m2 0 1 1-1-1z"/><path style="fill:#ed9c98;stroke:none" d="m403 683 1 1-1-1m49 0v3h1l-1-3m130 0 1 1-1-1m6 0 1 1-1-1m-229 1 1 1-1-1z"/><path style="fill:#e5715d;stroke:none" d="m365 684 1 1-1-1m44 0 1 1-1-1z"/><path style="fill:#ed9c98;stroke:none" d="m486 684 1 1-1-1z"/><path style="fill:#e5715d;stroke:none" d="m493 684 1 1-1-1m89 0 1 1-1-1z"/><path style="fill:#ed9c98;stroke:none" d="m608.333 684.667.334.666-.334-.666M357 685l1 1-1-1z"/><path style="fill:#e5715d;stroke:none" d="m358 685 1 1-1-1z"/><path style="fill:#ed9c98;stroke:none" d="m402.333 685.667.334.666-.334-.666M409 685l1 1-1-1m48 0 1 1-1-1m22 0v1h3l-3-1z"/><path style="fill:#e5715d;stroke:none" d="m482.667 685.333.666.334-.666-.334M564 685v5h1l-1-5m23.333.667.334.666-.334-.666M356 686l1 1-1-1z"/><path style="fill:#ed9c98;stroke:none" d="m378 686 1 1-1-1z"/><path style="fill:#e5715d;stroke:none" d="m408 686 1 1-1-1m49 0 1 1-1-1z"/><path style="fill:#ed9c98;stroke:none" d="M468 686v1h3l-3-1z"/><path style="fill:#e5715d;stroke:none" d="M471 686v1h4l-4-1z"/><path style="fill:#ed9c98;stroke:none" d="m492 686 1 1-1-1z"/><path style="fill:#e5715d;stroke:none" d="m608.333 686.667.334.666-.334-.666M680 686v3h1l-1-3z"/><path style="fill:#ed9c98;stroke:none" d="M821 686v3h1l-1-3m-617 1v3h1l-1-3z"/><path style="fill:#e5715d;stroke:none" d="m354 687 1 1-1-1z"/><path style="fill:#ed9c98;stroke:none" d="m365 687 1 1-1-1z"/><path style="fill:#e5715d;stroke:none" d="m402.333 687.667.334.666-.334-.666z"/><path style="fill:#ed9c98;stroke:none" d="m408 687 1 1-1-1z"/><path style="fill:#e5715d;stroke:none" d="M458 687v1h5l-5-1m33 0 1 1-1-1m61 0 1 1-1-1z"/><path style="fill:#ed9c98;stroke:none" d="m553.667 687.333.666.334-.666-.334z"/><path style="fill:#f7ceca;stroke:none" d="M546 701c10.317-.45 11.999-4.374 12-14-10.119 1.363-13.959 3.448-12 14z"/><path style="fill:#ed9c98;stroke:none" d="m581 687 1 1-1-1m6 0 1 1-1-1z"/><path style="fill:#e5715d;stroke:none" d="m615 687 1 1-1-1m72 0v5h1l-1-5z"/><path style="fill:#ed9c98;stroke:none" d="M343 688v3h1l-1-3m9 0 1 1-1-1m12 0 1 1-1-1m43 0 1 1-1-1z"/><path style="fill:#e5715d;stroke:none" d="m490 688 1 1-1-1z"/><path style="fill:#ed9c98;stroke:none" d="M539 688v6h1l-1-6z"/><path style="fill:#e5715d;stroke:none" d="m548 688 1 1-1-1z"/><path style="fill:#ed9c98;stroke:none" d="m549.667 688.333.666.334-.666-.334z"/><path style="fill:#e5715d;stroke:none" d="m558.333 688.667.334.666-.334-.666M581 688l1 1-1-1z"/><path style="fill:#ed9c98;stroke:none" d="m615 688 1 1-1-1m-265 1 1 1-1-1m13 0 1 1-1-1m40 0 1 1-1-1m3 0 1 1-1-1z"/><path style="fill:#e5715d;stroke:none" d="m489 689 1 1-1-1m56 0 1 1-1-1z"/><path style="fill:#ed9c98;stroke:none" d="m546 689 1 1-1-1m61.333.667.334.666-.334-.666M680 689v12h1l-1-12m-332 1 1 1-1-1z"/><path style="fill:#e5715d;stroke:none" d="m361 690 1 1-1-1m92.333.667.334.666-.334-.666M488 690l1 1-1-1m56 0v5h1l-1-5z"/><path style="fill:#ed9c98;stroke:none" d="M558 690v3h1l-1-3m6 0v7h1l-1-7m16 0 1 1-1-1m6.333.667.334.666-.334-.666M346 691l1 1-1-1m14 0 1 1-1-1m127 0 1 1-1-1z"/><path style="fill:#e5715d;stroke:none" d="m580 691 1 1-1-1m27 0 1 1-1-1z"/><path style="fill:#ed9c98;stroke:none" d="m614 691 1 1-1-1m206.333.667.334.666-.334-.666m-615 1 .334.666-.334-.666z"/><path style="fill:#e5715d;stroke:none" d="m358 692 1 1-1-1m127 0 1 1-1-1z"/><path style="fill:#ed9c98;stroke:none" d="m336 693 1 1-1-1m21 0 1 1-1-1m98 0 1 1-1-1z"/><path style="fill:#e5715d;stroke:none" d="m456 693 1 1-1-1z"/><path style="fill:#ed9c98;stroke:none" d="M476 693v1h3l-3-1z"/><path style="fill:#e5715d;stroke:none" d="M558 693v4h1l-1-4m27 0 1 1-1-1m21 0 1 1-1-1m7 0 1 1-1-1m-258 1 1 1-1-1z"/><path style="fill:#ed9c98;stroke:none" d="M461 694v1h7l-7-1z"/><path style="fill:#e5715d;stroke:none" d="M468 694v4h1l-1-4z"/><path style="fill:#ed9c98;stroke:none" d="m475 694 1 1-1-1m104 0 1 1-1-1m6 0 1 1-1-1m28 0 1 1-1-1z"/><path style="fill:#e5715d;stroke:none" d="m353 695 1 1-1-1m226 0 1 1-1-1z"/><path style="fill:#ed9c98;stroke:none" d="m605 695 1 1-1-1m214.333.667.334.666-.334-.666M206 696l1 1-1-1z"/><path style="fill:#e5715d;stroke:none" d="m337 696 1 1-1-1m14 0 1 1-1-1z"/><path style="fill:#ed9c98;stroke:none" d="m352 696 1 1-1-1z"/><path style="fill:#e5715d;stroke:none" d="m584 696 1 1-1-1m21 0 1 1-1-1m7 0 1 1-1-1m-263 1 1 1-1-1z"/><path style="fill:#ed9c98;stroke:none" d="m350 697 1 1-1-1z"/><path style="fill:#e5715d;stroke:none" d="M474 697v3h1l-1-3z"/><path style="fill:#ed9c98;stroke:none" d="m557 697 1 1-1-1z"/><path style="fill:#e5715d;stroke:none" d="m570 697 1 1-1-1z"/><path style="fill:#ed9c98;stroke:none" d="m578 697 1 1-1-1m6 0 1 1-1-1z"/><path style="fill:#e5715d;stroke:none" d="m339 698 1 1-1-1m8 0 1 1-1-1z"/><path style="fill:#ed9c98;stroke:none" d="m468 698 1 1-1-1m77 0 4 4v-1l-4-3z"/><path style="fill:#e5715d;stroke:none" d="m557 698 1 1-1-1z"/><path style="fill:#ed9c98;stroke:none" d="m571 698 1 1-1-1m33 0 1 1-1-1z"/><path style="fill:#e5715d;stroke:none" d="m611 698 1 1-1-1z"/><path style="fill:#ed9c98;stroke:none" d="m818.333 698.667.334.666-.334-.666M207 699l1 1-1-1m133 0 1 1-1-1z"/><path style="fill:#e5715d;stroke:none" d="m341 699 1 1-1-1z"/><path style="fill:#ed9c98;stroke:none" d="M342 699v1h3l-3-1z"/><path style="fill:#e5715d;stroke:none" d="m468.333 699.667.334.666-.334-.666M540 699v4h1l-1-4z"/><path style="fill:#ed9c98;stroke:none" d="m555 699 1 1-1-1z"/><path style="fill:#e5715d;stroke:none" d="m571 699 1 1-1-1z"/><path style="fill:#ed9c98;stroke:none" d="m577 699 1 1-1-1z"/><path style="fill:#e5715d;stroke:none" d="m583 699 1 1-1-1z"/><path style="fill:#ed9c98;stroke:none" d="M652 699v1h3l-3-1m-178 1 1 1-1-1m77.667.333.666.334-.666-.334z"/><path style="fill:#e5715d;stroke:none" d="m553 700 1 1-1-1m24 0 1 1-1-1z"/><path style="fill:#ed9c98;stroke:none" d="m583 700 1 1-1-1z"/><path style="fill:#e5715d;stroke:none" d="m603 700 1 1-1-1m7 0 1 1-1-1m41 0 1 1-1-1m4 0 1 1-1-1z"/><path style="fill:#ed9c98;stroke:none" d="m208.333 701.667.334.666-.334-.666M456 701v1h5l-5-1z"/><path style="fill:#e5715d;stroke:none" d="M461 701v1h7l-7-1m34 0v1h6l-6-1z"/><path style="fill:#ed9c98;stroke:none" d="M501 701v1h3l-3-1z"/><path style="fill:#e5715d;stroke:none" d="m545 701 1 1-1-1m4 0 1 1-1-1m22 0 1 1-1-1z"/><path style="fill:#ed9c98;stroke:none" d="m610 701 1 1-1-1z"/><path style="fill:#e5715d;stroke:none" d="m650.333 701.667.334.666-.334-.666z"/><path style="fill:#ed9c98;stroke:none" d="m657 701 1 1-1-1z"/><path style="fill:#e5715d;stroke:none" d="m680 701 1 1-1-1m7.333.667.334.666-.334-.666z"/><path style="fill:#ed9c98;stroke:none" d="m817.333 701.667.334.666-.334-.666m-370.666.666.666.334-.666-.334z"/><path style="fill:#e5715d;stroke:none" d="M448 702v1h4l-4-1m56 0 1 1-1-1m66 0 1 1-1-1z"/><path style="fill:#ed9c98;stroke:none" d="m576 702 1 1-1-1z"/><path style="fill:#e5715d;stroke:none" d="m582 702 1 1-1-1m20 0 1 1-1-1m7 0 1 1-1-1m49 0 1 1-1-1z"/><path style="fill:#ed9c98;stroke:none" d="m444 703 1 1-1-1z"/><path style="fill:#e5715d;stroke:none" d="m505 703 1 1-1-1z"/><path style="fill:#ed9c98;stroke:none" d="m537 703 1 1-1-1z"/><path style="fill:#e5715d;stroke:none" d="m538 703 1 1-1-1z"/><path style="fill:#ed9c98;stroke:none" d="m569 703 1 1-1-1z"/><path style="fill:#e5715d;stroke:none" d="m576 703 1 1-1-1z"/><path style="fill:#ed9c98;stroke:none" d="m582 703 1 1-1-1m19 0 1 1-1-1m8 0 1 1-1-1z"/><path style="fill:#e5715d;stroke:none" d="m659 703 1 1-1-1z"/><path style="fill:#ed9c98;stroke:none" d="m687 703 1 1-1-1m-478 1 1 1-1-1m297.333.667.334.666-.334-.666z"/><path style="fill:#e5715d;stroke:none" d="m536 704 1 1-1-1m30 0 1 1-1-1z"/><path style="fill:#ed9c98;stroke:none" d="m567 704 1 1-1-1z"/><path style="fill:#e5715d;stroke:none" d="m601 704 1 1-1-1m7 0 1 1-1-1z"/><path style="fill:#ed9c98;stroke:none" d="m679 704 1 1-1-1m137 0 1 1-1-1z"/><path style="fill:#e5715d;stroke:none" d="m535 705 1 1-1-1m28 0 1 1-1-1z"/><path style="fill:#ed9c98;stroke:none" d="m564 705 1 1-1-1m11 0 1 1-1-1z"/><path style="fill:#e5715d;stroke:none" d="m581 705 1 1-1-1z"/><path style="fill:#ed9c98;stroke:none" d="m600 705 1 1-1-1m8 0 1 1-1-1m54 0 1 1-1-1z"/><path style="fill:#e5715d;stroke:none" d="m679 705 1 1-1-1m7 0 1 1-1-1z"/><path style="fill:#ed9c98;stroke:none" d="m210 706 1 1-1-1z"/><path style="fill:#e5715d;stroke:none" d="m444 706 1 1-1-1m61 0 1 1-1-1z"/><path style="fill:#ed9c98;stroke:none" d="m534 706 1 1-1-1z"/><path style="fill:#e5715d;stroke:none" d="m560 706 1 1-1-1z"/><path style="fill:#ed9c98;stroke:none" d="m561 706 1 1-1-1m20 0 1 1-1-1z"/><path style="fill:#e5715d;stroke:none" d="m607 706 1 1-1-1z"/><path style="fill:#ed9c98;stroke:none" d="m663 706 1 1-1-1m23 0 1 1-1-1m129.333.667.334.666-.334-.666z"/><path style="fill:#e5715d;stroke:none" d="m445 707 1 1-1-1m58 0 1 1-1-1z"/><path style="fill:#ed9c98;stroke:none" d="m504 707 1 1-1-1z"/><path style="fill:#e5715d;stroke:none" d="m556 707 1 1-1-1z"/><path style="fill:#ed9c98;stroke:none" d="m557 707 1 1-1-1m17 0 1 1-1-1z"/><path style="fill:#e5715d;stroke:none" d="m580 707 1 1-1-1z"/><path style="fill:#ed9c98;stroke:none" d="m599 707 1 1-1-1z"/><path style="fill:#e5715d;stroke:none" d="m664 707 1 1-1-1m14 0 1 1-1-1z"/><path style="fill:#ed9c98;stroke:none" d="m211 708 1 1-1-1m236 0v1h3l-3-1z"/><path style="fill:#e5715d;stroke:none" d="M450 708v1h7l-7-1m25 0v1h16l-16-1z"/><path style="fill:#ed9c98;stroke:none" d="M491 708v1h9l-9-1z"/><path style="fill:#e5715d;stroke:none" d="m551.667 708.333.666.334-.666-.334z"/><path style="fill:#ed9c98;stroke:none" d="m553 708 1 1-1-1z"/><path style="fill:#e5715d;stroke:none" d="m574 708 1 1-1-1z"/><path style="fill:#ed9c98;stroke:none" d="m580 708 1 1-1-1z"/><path style="fill:#e5715d;stroke:none" d="m606 708 1 1-1-1m59 0 1 1-1-1z"/><path style="fill:#ed9c98;stroke:none" d="m666 708 1 1-1-1m19 0 1 1-1-1m-217 1v11h1l-1-11m6 0v11h1l-1-11z"/><path style="fill:#e5715d;stroke:none" d="m546.667 709.333.666.334-.666-.334z"/><path style="fill:#ed9c98;stroke:none" d="m548 709 1 1-1-1z"/><path style="fill:#e5715d;stroke:none" d="m598 709 1 1-1-1z"/><path style="fill:#ed9c98;stroke:none" d="m667.667 709.333.666.334-.666-.334M814 709l1 1-1-1m-602 1 1 1-1-1m326 0 1 1-1-1z"/><path style="fill:#e5715d;stroke:none" d="M539 710v1h3l-3-1z"/><path style="fill:#ed9c98;stroke:none" d="m542.667 710.333.666.334-.666-.334M573 710v3h1l-1-3z"/><path style="fill:#e5715d;stroke:none" d="m579 710 1 1-1-1z"/><path style="fill:#ed9c98;stroke:none" d="m597 710 1 1-1-1m8 0 1 1-1-1z"/><path style="fill:#e5715d;stroke:none" d="m658 710 1 1-1-1m26 0 1 1-1-1m-304.667 1.667.334.666-.334-.666m5 0 .334.666-.334-.666M597 711l1 1-1-1m7 0 1 1-1-1m55 0 1 1-1-1z"/><path style="fill:#ed9c98;stroke:none" d="m813 711 1 1-1-1m-600 1 1 1-1-1m365 0 1 1-1-1z"/><path style="fill:#e5715d;stroke:none" d="m598 712 1 1-1-1m5 0 1 1-1-1z"/><path style="fill:#ed9c98;stroke:none" d="m660 712 1 1-1-1m-281 1 1 1-1-1z"/><path style="fill:#e5715d;stroke:none" d="m383 713 1 1-1-1m191 0 1 1-1-1z"/><path style="fill:#ed9c98;stroke:none" d="m577 713 1 1-1-1m22 0 1 1-1-1z"/><path style="fill:#e5715d;stroke:none" d="m600 713 1 1-1-1m2 0 1 1-1-1z"/><path style="fill:#ed9c98;stroke:none" d="m661 713 1 1-1-1m21 0 1 1-1-1m130 0 1 1-1-1m-598 1 1 1-1-1m166 0 1 1-1-1z"/><path style="fill:#e5715d;stroke:none" d="m382 714 1 1-1-1m281 0 1 1-1-1z"/><path style="fill:#ed9c98;stroke:none" d="m811 714 1 1-1-1m-147 1 1 1-1-1m15 0 1 1-1-1m-464 1 1 1-1-1m451.667.333.666.334-.666-.334z"/><path style="fill:#e5715d;stroke:none" d="m668.667 716.333.666.334-.666-.334M677 716l1 1-1-1z"/><path style="fill:#ed9c98;stroke:none" d="m810 716 1 1-1-1m-594 1 1 1-1-1m459 0 1 1-1-1m-458 2 1 1-1-1m591 0 1 1-1-1m-590 1 1 1-1-1m251 1v1h4l-4-1m338 0 1 1-1-1m-588 1 1 1-1-1m587 0 1 1-1-1m-586 1 1 1-1-1m1 1 1 1-1-1m583 1 1 1-1-1m-1 1 1 1-1-1m-580 1 1 1-1-1m579 0 1 1-1-1m-578 1 1 1-1-1m1 1 1 1-1-1m1 1 1 1-1-1m1 1 1 1-1-1m1 1 1 1-1-1m1 1 1 1-1-1m1 1 1 1-1-1m1 1 1 1-1-1m1 1 1 1-1-1m559 2 1 1-1-1m-555 1 1 1-1-1m554 0 1 1-1-1m-553 1 1 1-1-1m550 1 1 1-1-1m-547 1 1 1-1-1m546 0 1 1-1-1m-545 1 1 1-1-1m543 0 1 1-1-1m-541 1 1 1-1-1m540 0 1 1-1-1m-2 1 1 1-1-1m-535 1 1 1-1-1m2 1 1 1-1-1m530 0 1 1-1-1m-528 1 1 1-1-1m526 0 1 1-1-1m-2 1 1 1-1-1m-520 1 1 1-1-1m518 0 1 1-1-1m-516 1 1 1-1-1m514 0 1 1-1-1m-511.333 1.333.666.334-.666-.334M767 752l1 1-1-1m-506 1 1 1-1-1m503.667.333.666.334-.666-.334M264 754l1 1-1-1m497.667.333.666.334-.666-.334m-494 1 .666.334-.666-.334m490 0 .666.334-.666-.334m-486 1 .666.334-.666-.334m482 0 .666.334-.666-.334M276 757v1h4l-4-1m469 0v1h5l-5-1m-459 1v1h455c-10.504-4.408-28.58-1-40-1H286m-21 34v1h3l-3-1z"/><path style="fill:#f7ceca;stroke:none" d="M268 792.439c-32.232 5.076-42.865 51.953-10 65.467 12.558 5.164 27.723 3.094 41 3.094h435c14.463 0 29.865 1.782 41.996-7.681 19.66-15.335 15.323-47.651-6.996-57.995-19.547-9.059-50.822-3.324-72-3.324H316c-15.553 0-32.633-1.981-48 .439z"/><path style="fill:#ed9c98;stroke:none" d="M758 792v1h3l-3-1m-496.333 1.333.666.334-.666-.334M764 793l1 1-1-1m-505.333 1.333.666.334-.666-.334M767 794l1 1-1-1m-510.333 1.333.666.334-.666-.334M769 795l1 1-1-1m-515 1 1 1-1-1m517 0 1 1-1-1m-518 1 1 1-1-1m521 1 1 1-1-1m-524 1 1 1-1-1m527 1 1 1-1-1m1 1 1 1-1-1m1 1 1 1-1-1m-534 2 1 1-1-1m-1 1 1 1-1-1m538 1 1 1-1-1m-540 2 1 1-1-1m542 1 1 1-1-1m-543 1 1 1-1-1m544 1 1 1-1-1m-545 1 1 1-1-1m546.333 1.667.334.666-.334-.666m-547 1 .334.666-.334-.666m548 2 .334.666-.334-.666m-549 1 .334.666-.334-.666M788 820v3h1l-1-3m-551 2v9h1l-1-9m551 8v3h1l-1-3m-549.667 4.667.334.666-.334-.666m549 1 .334.666-.334-.666m-548 2 .334.666-.334-.666m547 1 .334.666-.334-.666M240 840l1 1-1-1m545 1 1 1-1-1m-544 1 1 1-1-1m543 1 1 1-1-1m-542 1 1 1-1-1m540 2 1 1-1-1m-538 1 1 1-1-1m1 1 1 1-1-1m1 1 1 1-1-1m1 1 1 1-1-1m1 1 1 1-1-1m1 1 1 1-1-1m1 1 1 1-1-1m525 0 1 1-1-1m-1 1 1 1-1-1m-521 1 1 1-1-1m518 1 1 1-1-1m-515 1 1 1-1-1m513 0 1 1-1-1m-510.333 1.333.666.334-.666-.334M767 858l1 1-1-1m-505.333 1.333.666.334-.666-.334M764 859l1 1-1-1m-499 1v1h3l-3-1m493 0v1h3l-3-1z"/></svg>
